<?xml version="1.0" encoding="UTF-8" standalone="no"?>
<svg
   xmlns:dc="http://purl.org/dc/elements/1.1/"
   xmlns:cc="http://creativecommons.org/ns#"
   xmlns:rdf="http://www.w3.org/1999/02/22-rdf-syntax-ns#"
   xmlns:svg="http://www.w3.org/2000/svg"
   xmlns="http://www.w3.org/2000/svg"
   xmlns:sodipodi="http://sodipodi.sourceforge.net/DTD/sodipodi-0.dtd"
   xmlns:inkscape="http://www.inkscape.org/namespaces/inkscape"
   width="256pt"
   height="256pt"
   viewBox="0 0 256 256"
   version="1.1"
   id="svg2"
   inkscape:version="0.91 r13725"
   sodipodi:docname="NFC_waves.svg">
  <metadata
     id="metadata14">
    <rdf:RDF>
      <cc:Work
         rdf:about="">
        <dc:format>image/svg+xml</dc:format>
        <dc:type
           rdf:resource="http://purl.org/dc/dcmitype/StillImage" />
      </cc:Work>
    </rdf:RDF>
  </metadata>
  <defs
     id="defs12" />
  <sodipodi:namedview
     pagecolor="#ffffff"
     bordercolor="#666666"
     borderopacity="1"
     objecttolerance="10"
     gridtolerance="10"
     guidetolerance="10"
     inkscape:pageopacity="0"
     inkscape:pageshadow="2"
     inkscape:window-width="1366"
     inkscape:window-height="705"
     id="namedview10"
     showgrid="false"
     inkscape:zoom="0.7375"
     inkscape:cx="136.27119"
     inkscape:cy="158.64407"
     inkscape:window-x="-8"
     inkscape:window-y="-8"
     inkscape:window-maximized="1"
     inkscape:current-layer="svg2" />
  <g
     id="#ffffffff" />
  <g
     id="#000000ff"
     transform="matrix(-1,0,0,1,256.0449,0)">
    <path
       d="m 131.34,0 44.29,0 c 5.43,3.66 9.92,8.72 12.76,14.63 5.55,11.35 8.2,23.88 9.45,36.38 0.04,6.03 1.38,11.96 1.21,17.99 -0.22,57.74 0.18,115.49 -0.19,173.23 -4.83,-2.24 -7.53,-7.22 -11.67,-10.4 -5.82,-4.47 -10.71,-9.96 -15.94,-15.08 -22.83,-22.83 -45.67,-45.67 -68.5,-68.5 -2.15,-2.2 -4.58,-4.17 -6.4,-6.66 -0.69,-3.15 -0.32,-6.4 -0.37,-9.6 0.18,-7.07 -0.24,-14.15 0.16,-21.22 3.2,1.25 5.21,4.19 7.61,6.47 23.65,23.69 47.35,47.31 70.97,71.02 0.96,0.64 1.79,2.14 3.12,1.73 0.39,-36.33 0.02,-72.68 0.18,-109.01 C 176.76,65.45 175.55,49.63 170.16,34.86 167.08,24.58 160.46,15.54 152.02,8.99 145.89,4.43 138.35,2.67 131.34,0 Z"
       id="path6"
       inkscape:connector-curvature="0"
       style="opacity:1;fill:#000000" />
    <path
       d="m 57.14,13.78 c 3.42,1.34 5.51,4.55 8.09,7 3.06,3.3 6.82,5.82 10.03,8.96 25.8,25.86 51.67,51.66 77.49,77.51 2.3,2.38 4.93,4.48 6.9,7.16 0.68,3.15 0.32,6.4 0.37,9.6 -0.17,7.06 0.25,14.14 -0.16,21.21 -3.21,-1.23 -5.21,-4.19 -7.62,-6.47 C 130.1,116.57 107.9,94.43 85.76,72.24 c -2.41,-2.28 -4.42,-5.22 -7.62,-6.46 -0.35,36.4 -0.01,72.83 -0.16,109.25 1.26,15.79 2.55,31.87 8.11,46.86 3.34,10.7 10.44,20.05 19.68,26.34 5.78,3.73 12.54,5.33 18.9,7.77 l -44.3,0 c -5.43,-3.67 -9.92,-8.72 -12.76,-14.64 -5.55,-11.34 -8.2,-23.88 -9.45,-36.38 -0.05,-5.01 -0.96,-9.95 -1.18,-14.95 0.04,-57.69 0.02,-115.38 0.01,-173.06 0.03,-0.8 0.11,-2.4 0.15,-3.19 z"
       id="path8"
       inkscape:connector-curvature="0"
       style="opacity:1;fill:#000000" />
  </g>
</svg>
