<?xml version="1.0" encoding="UTF-8" standalone="no"?>
<svg
   xmlns:dc="http://purl.org/dc/elements/1.1/"
   xmlns:cc="http://creativecommons.org/ns#"
   xmlns:rdf="http://www.w3.org/1999/02/22-rdf-syntax-ns#"
   xmlns:svg="http://www.w3.org/2000/svg"
   xmlns="http://www.w3.org/2000/svg"
   xmlns:sodipodi="http://sodipodi.sourceforge.net/DTD/sodipodi-0.dtd"
   xmlns:inkscape="http://www.inkscape.org/namespaces/inkscape"
   width="280pt"
   height="280pt"
   viewBox="0 0 280 280"
   version="1.1"
   id="svg2"
   inkscape:version="0.91 r13725"
   sodipodi:docname="NFC_logo.svg">
  <metadata
     id="metadata27">
    <rdf:RDF>
      <cc:Work
         rdf:about="">
        <dc:format>image/svg+xml</dc:format>
        <dc:type
           rdf:resource="http://purl.org/dc/dcmitype/StillImage" />
      </cc:Work>
    </rdf:RDF>
  </metadata>
  <defs
     id="defs25" />
  <sodipodi:namedview
     pagecolor="#ffffff"
     bordercolor="#666666"
     borderopacity="1"
     objecttolerance="10"
     gridtolerance="10"
     guidetolerance="10"
     inkscape:pageopacity="0"
     inkscape:pageshadow="2"
     inkscape:window-width="1366"
     inkscape:window-height="705"
     id="namedview23"
     showgrid="false"
     inkscape:zoom="1.3485714"
     inkscape:cx="273.46165"
     inkscape:cy="184.64721"
     inkscape:window-x="-8"
     inkscape:window-y="-8"
     inkscape:window-maximized="1"
     inkscape:current-layer="#ec1c24ff" />
  <g
     id="#ffffffff" />
  <g
     id="#ec1c24ff"
     transform="translate(-320,0)">
    <path
       d="m 447.17234,38.130082 c 25.12496,-2.369214 50.98323,2.673827 73.11846,14.869639 3.54254,2.030755 7.64918,4.80612 7.70559,9.364036 0.9364,7.039951 -6.73533,14.046056 -13.59478,11.259409 -6.6338,-2.549726 -12.59068,-6.622517 -19.37114,-8.845066 -10.34557,-4.242022 -21.54857,-5.302527 -32.57105,-6.227648 -6.04714,-0.417434 -12.04915,0.552815 -18.03988,1.195888 -12.39889,1.02666 -24.12085,5.83278 -35.0418,11.541458 -3.00101,1.353836 -6.15996,3.09126 -9.55583,2.752801 -5.58459,-1.026659 -10.01839,-6.870721 -9.17225,-12.545553 0.82359,-4.140484 4.4451,-6.904567 7.95379,-8.788656 15.09528,-7.818407 31.58952,-13.087088 48.56889,-14.576308 z"
       id="path8"
       inkscape:connector-curvature="0"
       style="opacity:1;fill:#ec1c24" />
    <path
       d="m 447.17242,76.500069 c 10.23275,-0.902557 20.63473,-0.846147 30.77722,0.936403 9.52199,1.9405 18.76192,5.234836 27.44903,9.600959 3.04614,1.635886 6.36304,3.802024 7.32201,7.344564 0.98153,5.460474 -4.97535,11.372235 -10.43583,9.431725 -6.30662,-2.13229 -11.80094,-6.216363 -18.34448,-7.761993 -16.35886,-5.358937 -34.30848,-5.088169 -50.61093,0.338459 -6.14867,1.681014 -11.39479,5.562014 -17.45321,7.457384 -5.16715,1.68101 -10.22147,-3.67792 -9.74763,-8.732247 0.23693,-4.140483 4.05023,-6.69021 7.40098,-8.371223 10.57121,-5.14458 21.92087,-8.98045 33.64284,-10.244031 z"
       id="path10"
       inkscape:connector-curvature="0"
       style="opacity:1;fill:#ec1c24" />
    <path
       d="m 449.34973,110.09778 c 14.61015,-2.33536 29.76184,0.64307 43.00688,7.02867 2.36921,1.19589 4.97534,2.77536 5.74252,5.51688 1.10563,3.3169 -1.28615,6.87073 -4.42254,7.93123 -2.8092,0.0789 -5.32509,-1.46666 -7.8184,-2.53844 -13.94452,-7.22047 -30.74337,-7.91995 -45.60173,-3.2605 -4.29843,1.41025 -8.12302,3.90357 -12.3876,5.37023 -2.31281,0.97024 -4.90767,-0.1918 -6.46458,-1.96307 -1.85024,-3.18151 -1.1282,-8.0102 2.3805,-9.71378 7.91994,-4.28714 16.62963,-7.17533 25.56495,-8.37122 z"
       id="path12"
       inkscape:connector-curvature="0"
       style="opacity:1;fill:#ec1c24" />
    <path
       d="m 368.62949,172.07259 c 5.59404,-0.58796 11.38967,-0.89033 16.89972,0.38638 2.67102,1.6631 4.50211,4.30053 6.43398,6.71957 8.24827,11.17128 16.22777,22.56095 24.47603,33.74902 0.1848,-13.59032 -1.5455,-27.36543 0.77275,-40.83817 5.71165,-0.65516 11.50726,-0.68875 17.21889,-0.0168 1.29352,10.83529 0.2688,21.7882 0.53758,32.6739 -0.26878,11.59125 0.67195,23.21611 -0.35279,34.77376 -7.15634,0.89035 -16.93331,2.92302 -21.7042,-4.08213 -8.86983,-11.64166 -17.1181,-23.75368 -25.97113,-35.42893 -0.0671,13.20395 1.22632,26.5087 -0.41997,39.66225 -6.03083,0.95754 -12.22962,0.94073 -18.26044,-0.0504 -1.5791,-12.12883 -0.31918,-24.37523 -0.62154,-36.55445 0.28556,-10.33134 -1.02476,-20.79707 0.99112,-30.99401 z"
       id="path14"
       inkscape:connector-curvature="0"
       style="opacity:1;fill:#ec1c24" />
    <path
       d="m 496.93951,206.42639 c -0.87354,-17.95805 14.39668,-34.94176 32.37154,-35.7649 6.36678,-0.25199 13.13675,0.33598 18.74759,3.61177 1.56229,0.83994 2.35184,2.16704 2.36864,3.99814 0.68875,5.37565 0.35279,10.86889 -0.83993,16.14376 -6.13162,-3.0574 -12.36402,-7.8787 -19.63795,-5.96363 -10.39854,1.42792 -15.00144,13.70792 -12.68319,22.91374 1.52871,7.17313 8.01309,13.37195 15.539,13.33835 6.46759,0.084 11.72566,-4.25013 17.55487,-6.38359 0.38638,6.2492 0.78956,12.61599 -0.45356,18.798 -6.11481,4.85488 -14.78305,4.16612 -22.17459,4.18291 -17.65566,-0.31917 -31.38038,-17.85724 -30.79242,-34.87455 z"
       id="path16"
       inkscape:connector-curvature="0"
       style="opacity:1;fill:#ec1c24" />
    <path
       d="m 448.89396,172.84534 c 13.82551,-1.31031 27.91981,-1.19272 41.77893,-0.0504 0.80633,4.8045 0.87353,9.79377 -0.2688,14.56466 -7.54271,1.31032 -15.20303,0.38637 -22.77934,1.14233 -0.41996,3.14139 -0.45356,6.31639 -0.15118,9.4746 7.30753,1.12552 14.76625,0.13438 22.09059,1.24312 0.95753,4.73729 0.94073,9.65937 -0.0168,14.41346 -7.22353,1.09193 -14.58146,0.10086 -21.80498,1.20953 -0.90716,8.19787 0.28556,16.49655 -0.90716,24.67761 -5.91322,1.07513 -12.01123,1.07513 -17.92445,0.0671 -1.57909,-10.96969 -0.38637,-22.10737 -0.67194,-33.16106 0.26877,-11.18809 -0.90715,-22.46017 0.65514,-33.58105 z"
       id="path18"
       inkscape:connector-curvature="0"
       style="opacity:1;fill:#ec1c24" />
  </g>
  <g
     id="#010001ff"
     transform="translate(-1.779661,4.1525424)" />
</svg>
